<svg width="390" height="187" viewBox="0 0 390 187" fill="none" xmlns="http://www.w3.org/2000/svg">
<g clip-path="url(#clip0_3_1338)">
<path d="M557 261.333H551.71C550.05 255.583 548.05 254.113 540.21 255.193C534.16 256.033 531.23 253.063 528.85 248.513C528.41 247.663 527.8 246.393 528.12 245.733C532.04 237.833 526.19 232.983 522.89 227.463C520.65 229.043 518.61 230.483 515.73 232.513C514.84 219.473 504.8 226.713 499.51 223.213C498.11 225.223 496.9 226.953 495.7 228.683C495.37 228.623 495.03 228.553 494.7 228.493C494.92 227.063 495.07 225.623 495.38 224.213C495.68 222.823 496.14 221.473 496.68 219.593C487.55 218.273 485.14 227.703 478.13 229.653C478.86 227.773 479.49 226.153 480.12 224.533C475.93 222.813 474.71 223.413 474.26 227.693C473.86 231.463 473.84 235.263 473.65 238.963C475.43 237.913 477.4 236.753 479.23 235.683C481.28 239.623 483.04 242.993 484.8 246.373C485.46 248.653 482.4 252.223 489.35 253.143C487.42 255.993 485.7 260.153 484.52 260.003C478.68 259.273 484.33 254.613 482.48 252.183C481.12 251.973 479.75 251.773 478.39 251.573C479.16 250.413 480.57 249.263 480.57 248.103C480.57 245.263 479.93 242.423 479.37 238.223C475.44 241.423 472.69 243.663 469.15 246.553C469.5 244.463 469.54 243.103 469.96 241.873C473.24 232.323 471.96 222.803 469.85 213.293C469.67 212.483 469.48 211.573 468.97 210.973C464.37 205.443 459.73 199.953 455.03 194.503C452.67 191.763 450.16 189.143 447.76 186.443C446.66 185.203 445.88 183.503 444.54 182.723C443.08 181.863 440.24 180.913 439.56 181.583C437.07 184.033 434.53 186.893 433.36 190.093C432.37 192.793 432.09 195.303 428.65 195.303C425.24 195.303 423.43 193.673 424.24 189.853C418.85 188.363 412.86 188.323 409.51 182.813C413.1 183.333 416.5 184.173 419.9 184.153C421.36 184.153 423.6 182.693 424.13 181.353C425.65 177.553 426.35 173.433 427.61 169.523C429.06 165.003 430.77 160.553 433.25 156.313C434.6 163.253 435.94 170.203 437.26 177.013C441.08 177.493 442.24 176.973 441.58 173.373C441.12 170.873 442.04 167.843 443.12 165.403C445.54 159.973 448.46 154.753 451.49 148.833C446.07 147.143 441.27 145.583 436.42 144.193C435.83 144.023 434.84 144.633 434.26 145.133C428.7 149.843 422.9 150.133 417.2 146.113C416.07 144.273 415.32 141.603 413.84 141.103C412.57 140.673 410.4 142.643 408.74 143.713C407.78 144.333 407.15 145.563 406.15 146.033C396.49 150.543 397.65 159.283 397.61 167.553C397.6 170.893 399.39 172.673 402.66 173.333C406.1 174.023 409.49 174.993 412.91 175.833C412.8 176.313 412.69 176.793 412.58 177.273C408.57 176.773 404.57 176.273 400.33 175.753C400.08 177.003 399.61 177.893 399.82 178.573C402.41 186.773 395.89 190.713 391.91 195.893C390.64 197.543 389.79 199.513 388.76 201.343C387.57 203.453 386.38 205.573 385.27 207.563C385.81 210.483 386.12 213.603 387 216.553C387.96 219.813 389.01 223.183 390.79 226.033C393.68 230.663 392.31 240.603 387.32 244.083C383.81 246.543 382.63 248.993 383.77 253.303C384.43 255.793 383.65 258.893 382.82 261.493C381.82 264.643 381.81 266.173 384.96 268.743C389.83 272.713 393.29 278.403 397.35 283.363C396.87 283.813 396.38 284.253 395.9 284.703C393.8 282.753 391.69 280.823 389.62 278.833C386.39 275.743 383.49 272.163 379.84 269.703C378.25 268.633 374.07 268.853 372.9 270.153C366.34 277.413 357.51 278.913 348.45 280.813C347.69 285.893 350.52 288.733 354.87 290.693C354.01 292.193 353.28 293.463 352.09 295.543C354 294.603 355.21 294.013 356.41 293.423C356.73 293.783 357.04 294.143 357.36 294.503C355.55 295.923 353.79 297.433 351.9 298.743C348.74 300.933 345.69 308.413 346.46 312.433C346.95 315.013 347.47 317.593 347.56 320.223C344.49 312.903 339.78 305.963 345.35 297.453C346.8 295.243 346.07 291.183 345.46 288.143C344.67 284.243 341.15 281.053 342.73 276.403C343.02 275.553 341.52 273.873 340.56 272.863C338.16 270.323 335.59 267.933 332.36 264.783C330.39 265.283 327.08 266.133 324.05 266.913C322.04 264.143 320.04 261.733 318.42 259.093C314.02 251.933 305.71 251.143 299.24 247.453C294.71 244.863 290.6 247.503 287.63 252.233C286.36 254.243 284.02 255.573 282.16 257.213C281.74 256.783 281.31 256.363 280.89 255.933C281.81 254.483 282.69 253.013 283.65 251.603C288.56 244.383 287.8 237.203 283.42 230.123C279.89 224.433 276.41 218.693 272.51 213.273C269.72 209.393 266.02 206.723 260.63 207.243C259.04 207.403 257.3 205.943 255.91 204.573C262.64 201.993 268.74 201.743 273.56 207.143C278.93 204.103 284.39 201.643 289.07 198.143C292.37 195.673 294.37 191.533 297.41 188.613C301.4 184.783 305.78 181.743 312.08 183.043C314.11 183.463 316.73 181.943 318.83 180.843C322.93 178.713 326.98 176.443 330.79 173.843C332.73 172.523 334.76 170.633 335.6 168.533C338.71 160.723 340.96 152.553 344.26 144.833C347.74 136.693 349.46 128.453 349.13 119.613C349.01 116.373 348.16 115.033 344.89 115.213C340.66 115.453 336.07 116.263 334.57 110.443C334.47 110.043 333.91 109.603 333.47 109.473C326.66 107.343 320.92 102.103 313 103.123C303.66 104.323 294.11 104.493 285.54 108.973C283.78 109.893 282.03 111.963 281.49 113.843C280.41 117.643 280.17 121.683 278.34 125.883C277.96 122.203 276.87 118.433 277.36 114.883C278.04 109.983 276.39 101.533 272.17 99.5432C264.15 95.7632 260.94 87.5732 254.48 82.4832C254.83 82.0832 255.17 81.6732 255.52 81.2732C258.79 83.9332 262.11 86.5232 265.3 89.2732C267.43 91.1032 269.08 93.6832 271.46 94.9732C275.71 97.2732 278.83 100.063 279.1 105.733C291.44 103.093 303.39 100.523 315.83 97.8632C315.11 91.7432 314.34 85.2432 313.58 78.7332L314.75 78.5032C315.47 82.1132 316.58 85.6932 316.82 89.3332C317.22 95.4032 320.04 99.1532 325.74 101.183C330.34 102.823 335.11 104.003 337.76 109.173C339.26 112.093 347.1 111.983 351.41 110.033C353.65 109.023 355.98 107.953 358.38 107.593C365.12 106.603 369.42 103.313 370.36 96.2932C370.42 95.8232 370.71 95.3732 370.94 94.9332C370.98 94.8532 371.25 94.8832 371.41 94.8632C373.86 103.633 368.14 109.133 360.99 110.663C352.17 112.543 351.76 113.733 352.27 123.053C352.5 127.353 351.86 131.923 350.53 136.023C348.13 143.443 344.88 150.593 342.09 157.893C341.33 159.893 340.96 162.053 340.39 164.123C339.43 167.643 341.15 169.223 344.4 169.213C348.59 169.193 351.84 170.253 353.47 174.613C353.77 175.413 355.49 175.913 356.63 176.133C359.26 176.643 361.93 176.883 364.59 177.253C367.61 177.683 370.9 177.503 373.56 178.723C377.73 180.623 381.57 183.343 385.36 185.983C387.06 187.173 388.3 189.023 389.18 189.973C391.63 187.433 393.03 184.913 395.11 184.083C398.19 182.863 398.01 180.963 397.66 178.613C396.77 172.713 395.46 166.853 395.05 160.923C394.52 153.343 397.58 147.383 404.59 143.683C406.9 142.463 408.89 140.663 411.03 139.133C408.85 133.693 407 128.543 404.68 123.613C403.91 121.983 402.14 120.333 400.45 119.703C393.62 117.173 391.42 111.963 391.73 105.103C392.39 106.673 393.26 108.183 393.68 109.813C394.8 114.113 397.89 116.243 401.6 118.193C403.68 119.283 405.45 121.333 406.84 123.323C411.07 129.413 414.66 135.993 419.26 141.793C422.53 145.913 431.76 145.043 434.94 140.673C437.09 137.713 438.47 137.633 440.49 140.533C441.01 141.283 442.06 141.933 442.96 142.103C451.45 143.673 459.91 145.503 468.47 146.503C477.73 147.583 485.1 141.463 493.31 138.613C496.03 137.663 497.33 133.233 501.41 133.783C501.29 132.273 501.37 130.703 500.98 129.263C500.6 127.853 499.19 126.563 499.2 125.223C499.22 120.403 499.22 115.503 500.09 110.783C500.58 108.083 502.72 105.683 504.12 103.143C504.85 101.823 506.25 100.483 506.2 99.1932C505.96 92.5032 505.29 85.8232 504.9 79.1432C504.73 76.3532 504.87 73.5432 504.87 70.7432L506.35 70.2932C506.84 71.5932 507.55 72.8532 507.78 74.2032C508.32 77.4632 508.76 80.7532 508.98 84.0432C509.16 86.6232 508.99 89.2232 508.9 91.8132C508.88 92.4532 508.17 93.2932 508.4 93.6932C511.54 99.1432 507.88 102.703 505.43 107.083C500.67 115.583 501.35 124.323 507.08 132.753C509.39 131.873 511.98 130.873 514.82 129.793C515.57 132.783 516.27 135.563 516.96 138.343C516.64 138.473 516.31 138.603 515.99 138.733C515.28 137.703 514.75 136.473 513.82 135.713C512.74 134.823 510.93 133.453 510.12 133.823C505.93 135.713 501.58 137.593 497.99 140.383C490.38 146.303 482.05 150.343 472.46 150.953C466.88 151.313 461.22 150.443 457.08 150.203C453.63 156.393 450.07 161.673 447.73 167.443C446.48 170.523 446.17 175.013 447.52 177.883C449.96 183.053 453.77 187.643 457.43 192.143C458.48 193.433 460.96 193.563 462.92 194.283C464.84 196.853 467.32 199.833 469.42 203.063C471.55 206.353 473.74 209.713 475.1 213.353C476.71 217.643 480.34 217.773 483.61 218.123C485.14 218.283 487.19 216.663 488.45 215.333C490.67 212.993 493.18 210.463 496.03 213.063C501.46 218.003 507.62 219.203 514.72 218.143C515.36 220.453 515.91 222.473 516.62 225.053C518.75 224.343 520.71 223.693 522.88 222.973C522.27 218.193 524.5 214.913 528.03 211.833C535.82 205.023 540.46 196.583 539.67 185.813C539.64 185.353 539.89 184.863 539.86 184.973C547.65 187.733 551.9 181.803 557.03 178.323V183.323C552.67 185.483 548.28 187.593 543.97 189.853C543.38 190.163 542.94 191.223 542.89 191.973C542.56 196.303 542.12 200.513 538.1 203.313C537.65 203.623 537.31 204.563 537.41 205.113C538.39 210.463 534.77 212.723 531.09 215.253C526.02 218.743 525.71 221.373 528.46 227.023C531.14 232.503 533.76 237.803 532.99 244.543C532.74 246.703 538.01 251.753 540.41 251.543C547.54 250.933 552.7 253.043 557.02 258.313V261.313L557 261.333ZM326.49 262.873C327.66 262.083 328.05 261.833 328.43 261.563C330 260.473 331.53 258.623 333.14 258.553C334.32 258.503 335.66 260.733 336.83 262.043C338.47 263.873 340.09 265.723 341.56 267.693C343.02 269.653 344.31 271.753 345.63 273.823C346.73 275.553 347.4 277.053 350.2 275.533C353.97 273.493 358.2 271.203 362.27 271.133C365.98 271.073 368.12 269.673 370.49 267.623C371.61 266.653 372.67 265.453 373.99 264.893C379.16 262.663 382.54 257.013 380.69 251.833C379.15 247.533 379.87 245.253 383.95 243.013C389.46 239.993 390.69 235.633 387.2 230.463C382.97 224.213 382.89 216.993 381.21 210.163C380.73 208.193 381.65 205.463 382.78 203.593C387.75 195.413 385.68 186.223 376.32 184.523C369.44 183.273 362.28 182.533 355.35 180.953C353.31 180.483 350.96 180.033 349.48 178.733C343.85 173.803 339.27 173.873 334.09 179.293C333.12 180.303 331.63 180.823 330.37 181.563C328 182.943 325.15 183.863 323.36 185.783C320.45 188.913 317.73 190.003 313.71 188.053C312.48 187.453 310.41 187.823 309.05 188.453C307.22 189.303 305.66 190.803 304.06 192.103C301.32 194.323 298.69 196.683 295.91 198.843C291.14 202.543 286.29 206.133 281.47 209.763C280.35 210.613 279.2 211.423 278.06 212.253C279.06 213.613 279.84 215.863 281.1 216.173C285.85 217.343 286.75 220.523 287.53 224.753C288.37 229.303 290.38 233.663 292.12 238.013C292.44 238.823 293.82 239.323 294.8 239.753C297.53 240.953 300.3 242.033 303.06 243.173C305.65 244.243 308.24 245.313 310.83 246.373C312.66 247.123 314.63 247.653 316.31 248.663C318.58 250.023 320.62 251.753 322.47 253.113C323.71 256.123 325 259.253 326.49 262.863V262.873Z" fill="#4D5A79" fill-opacity="0.05"/>
<path d="M-2.92975e-05 296.333C5.90997 297.073 11.82 297.823 17.73 298.563C23.44 299.273 27.82 301.993 30.08 307.373C31.99 311.893 34.84 313.593 39.85 312.653C47.34 311.243 54.95 310.443 62.51 309.363C62.99 309.293 63.52 309.213 63.91 308.953C66.01 307.513 69.84 293.913 68.65 290.753C70.18 289.413 72.24 288.123 73.61 286.303C75.29 284.053 76.85 282.023 75.17 278.303C74.05 275.813 75.46 271.413 77.09 268.653C79.6 264.393 79.53 261.193 76.46 257.353C75.12 255.683 75.09 252.963 74.11 249.423C71.06 248.403 66.57 247.313 62.49 245.363C60.48 244.403 58.99 242.003 57.67 239.983C55.57 236.763 53.8 233.333 51.72 229.683C52.74 229.753 54.21 229.853 56.38 229.993C55.76 228.243 55.18 226.653 54.65 225.043C54.03 223.173 53.17 221.323 52.94 219.393C52.55 216.203 53.72 212.353 49.13 211.283C44.45 210.183 39.42 206.463 35.44 212.673C35.3 212.893 34.85 212.913 33.69 212.403C34.86 210.833 36.03 209.253 37.36 207.473C35.38 204.983 33.3 202.233 31.05 199.623C30.5 198.993 29.44 198.593 28.56 198.493C22.17 197.773 15.78 197.073 9.37997 196.533C6.27997 196.273 3.13997 196.383 0.0199707 196.333C0.0199707 193.333 0.0199707 190.333 0.0199707 187.333C4.39997 188.813 8.68997 190.733 13.19 191.653C19.26 192.893 25.49 193.343 31.81 194.163C31.71 185.443 36.41 181.543 42.78 178.913C42.1 179.703 41.47 180.543 40.72 181.263C31.02 190.553 33.96 202.663 46.9 206.683C48.8 207.273 51.02 207.533 52.47 208.703C54.03 209.963 55.21 211.993 55.94 213.923C57.13 217.083 57.95 220.403 58.7 223.713C59.41 226.853 59.95 230.053 60.32 233.253C60.56 235.353 60.37 237.513 60.37 240.163H70.23C69.03 241.593 68.5 242.223 67.15 243.853C70.98 244.223 74.12 244.833 77.24 244.733C80.68 244.623 84.2 244.203 87.49 243.263C89.57 242.663 91.3 240.843 93.09 239.633C93.76 243.473 93.16 244.663 89.48 245.653C86.65 246.423 83.76 246.983 80.61 247.713C81.74 252.723 83.16 257.213 83.62 261.803C83.9 264.633 82.62 267.593 82.22 270.523C81.84 273.283 81.7 276.083 81.47 278.653C85.04 280.053 89.57 276.453 89.44 282.613C94.32 280.773 98.6 279.153 101.55 278.043C105.11 275.113 107.78 272.903 110.09 271.003C111.86 272.853 112.73 274.523 113.7 274.583C114.73 274.643 115.99 273.313 116.91 272.353C121.08 267.993 125.1 263.493 129.33 259.193C130.19 258.313 131.93 257.343 132.87 257.643C139.39 259.783 144.98 255.183 151.11 255.393C155.23 255.533 159.31 256.603 163.41 257.253C163.32 257.883 163.22 258.513 163.13 259.143C161.73 258.853 160.29 258.213 158.93 258.343C154.9 258.733 150.89 259.303 146.9 260.023C143.6 260.623 140.36 262.173 137.09 262.173C132.54 262.173 129.51 263.383 127.61 267.763C126.84 269.533 124.64 270.633 123.25 272.193C121.41 274.263 119.57 276.363 118.02 278.653C115.64 282.163 119.85 282.883 120.91 284.963C121.78 286.693 123.33 288.673 123.05 290.283C121.65 298.303 125.15 304.883 128.52 311.563C131.18 316.833 133.56 322.043 130.23 328.043C129.66 329.063 130.38 332.103 131.1 332.333C135.47 333.743 139.29 336.703 144.64 335.413C150.42 334.013 156.56 334.123 162.19 333.613C163.23 338.473 163.98 341.973 164.78 345.733C161.52 347.973 162.05 351.773 164.51 354.053C172.03 361.023 172.75 369.573 171.7 378.823C171.55 380.133 171.53 381.473 171.56 382.793C171.73 390.133 175.58 394.343 180.65 395.273C185.48 393.163 188.77 391.803 191.99 390.293C193.6 389.543 195.14 388.603 196.62 387.613C199.79 385.503 202.83 383.173 206.09 381.203C206.99 380.653 208.69 380.593 209.63 381.073C212.71 382.663 215.63 383.733 219.11 382.113C219.85 381.763 221.26 382.843 222.17 383.193C225.05 379.773 228.54 376.583 230.76 372.663C232.33 369.903 233.5 365.753 232.61 362.933C228.36 349.413 223.41 336.113 218.58 322.793C216.32 316.553 209.69 317.093 204.99 314.663C204.64 314.483 203.41 316.003 202.17 317.093C202.69 315.403 203.07 314.123 203.8 311.753C209.38 313.853 214.69 315.853 220.37 317.993C224.66 312.473 229.2 306.633 233.67 300.873C233.49 309.063 228.88 316.983 223.66 317.033C224.47 320.183 224.98 323.303 226.06 326.213C229.57 335.693 233.21 345.133 237.03 354.493C237.43 355.473 239.25 356.323 240.48 356.433C246.41 356.973 251.68 355.483 255.56 350.103C255.71 356.533 254.8 356.313 267.92 355.543C263.5 356.753 259.09 358.023 254.65 359.163C250.01 360.353 245.27 361.233 240.71 362.683C239.63 363.033 238.46 365.073 238.41 366.383C238.23 371.323 236.81 375.273 232.69 378.493C229.23 381.203 226.52 384.753 230.75 389.273C231.45 390.013 231.59 391.273 231.93 392.123C229.39 390.133 227.07 386.863 224.37 386.503C218.22 385.693 211.87 386.093 205.64 386.533C203.96 386.653 202.43 388.683 200.81 389.813C198.97 391.093 197.12 392.363 195.26 393.623C192.38 395.563 189.49 397.483 186.9 399.203C190.72 402.803 193.76 405.723 196.87 408.573C201.61 412.913 206.35 417.263 211.23 421.443C211.84 421.963 213.63 421.863 214.35 421.343C216.97 419.423 219.58 417.393 221.81 415.033C224.75 411.923 227.32 408.453 230.79 405.603C225.71 413.483 218.49 420.223 217.99 430.323H215.99C215.99 428.913 215.99 427.513 215.99 427.543C212.14 426.123 208.56 425.753 206.36 423.813C200.83 418.933 195.96 413.303 190.72 408.073C189.75 407.103 188.17 405.903 187.11 406.093C186.06 406.293 185.04 407.993 184.46 409.243C181.22 416.233 178.13 423.283 174.98 430.313H153.98C154.21 426.553 157.05 426.503 159.71 426.413C172.05 426.003 175.87 422.853 178.37 410.933C179.05 407.693 179.78 404.463 180.59 400.783C178.73 399.933 176.81 399.043 174.88 398.173C170.71 396.273 166.69 388.573 167.45 384.043C170.1 368.243 170.76 369.703 159.54 355.713C158.76 356.193 157.97 356.683 156.02 357.883C157.76 354.333 159.23 351.983 160.06 349.433C160.92 346.813 161.16 343.993 161.86 340.243C155.47 340.243 149.75 340.543 144.07 340.153C138.98 339.803 133.94 338.693 129.47 338.003C128.41 339.643 127.02 341.803 125.62 343.963C125.04 343.273 124.45 342.593 123.87 341.903C123.15 344.443 122.25 346.963 121.78 349.543C121.57 350.683 121.91 352.193 122.56 353.163C127.26 360.123 128.71 367.543 125.27 375.773C125.19 374.513 124.81 373.193 125.07 372.023C126.61 365.183 124.13 359.593 119.82 354.573C117.46 351.823 115.78 349.203 119.97 346.773C115.51 339.563 109.36 338.773 102.39 344.283C99.43 338.383 89.21 333.393 82.79 334.333C81.54 334.513 79.98 333.203 78.71 332.363C74.93 329.883 71.23 327.283 67.25 324.573C63.91 332.953 61.05 340.113 58.19 347.273C57.89 347.243 57.6 347.203 57.3 347.173C58.18 343.123 59.03 339.063 59.95 335.013C61.38 328.733 62.96 322.493 64.1 316.163C64.19 315.643 61.24 313.753 59.92 313.953C53.53 314.913 47.16 316.123 40.89 317.703C33.44 319.583 32.49 319.313 29.22 312.303C26.3 306.043 22.15 301.763 14.54 301.333C9.63997 301.053 4.82997 299.393 -0.0300293 298.343C-0.0300293 297.673 -0.0300293 297.013 -0.0300293 296.343L-2.92975e-05 296.333ZM119.35 338.563C121.1 336.913 123.09 335.033 125.08 333.163C125.82 330.103 127.01 326.793 127.32 323.403C127.62 320.103 127.74 316.453 126.64 313.433C125.05 309.083 122.1 305.243 120.12 301.003C119.25 299.153 118.35 296.283 119.17 294.853C123.15 287.863 117.3 284.473 114.06 280.413C113.04 279.133 109.68 278.773 107.79 279.333C102.93 280.773 98.3 282.973 93.48 284.903C94.48 285.413 95.7 286.043 97.16 286.793C95.4 287.833 93.88 288.733 92.37 289.623C92.58 289.123 92.78 288.623 92.99 288.123C89.15 286.083 85.3 284.033 82.68 282.643C80.05 286.003 77.7 288.973 75.39 291.983C75.11 292.353 75.05 292.893 74.89 293.353C72.85 299.313 70.65 305.213 68.83 311.243C67.76 314.783 67.31 318.503 66.57 322.143C67.15 321.803 67.73 321.473 68.31 321.133C72.05 323.513 75.71 326.063 79.58 328.213C81.18 329.103 83.25 329.143 85.11 329.553C87.57 330.093 90.15 330.323 92.47 331.223C97.05 332.993 101.34 335.643 106.03 336.973C110.22 338.163 114.77 338.073 119.35 338.573V338.563Z" fill="#4D5A79" fill-opacity="0.05"/>
<path d="M143 0.333252C161 0.333252 179 0.333252 197 0.333252C203.69 8.19325 201.91 17.1633 199.96 25.9433C199.46 28.2033 197.07 30.1133 195.37 32.0233C193.9 33.6833 191.93 34.9233 190.6 36.6733C187.76 40.4033 185.2 44.3433 183.49 46.8033C178.9 46.4233 175.78 46.3333 172.72 45.8533C170.88 45.5633 168.41 45.2333 167.48 43.9833C161.81 36.3833 153.01 35.4633 144.97 33.5533C139.77 32.3133 135.13 27.5833 136.67 22.2833C138.71 15.2733 143.31 8.98325 142.52 1.18325C142.49 0.913252 142.84 0.613252 143.01 0.333252L143 0.333252Z" fill="white"/>
<path d="M299 0.333242C318.33 0.333242 337.67 0.333242 357 0.333242C358.75 7.43324 362.39 12.8732 369.43 15.1532C366.32 10.2732 363.16 5.30324 360 0.333242C372 0.333242 384 0.333242 396 0.333242C395.18 4.12324 393.67 7.43324 389.31 8.01324C383.36 8.80324 377.38 9.37324 370.49 10.1432C377.46 12.1032 374.32 16.3432 373.4 20.1232C373.17 21.0932 372.84 22.0332 372.56 22.9932C371.65 26.0932 370.1 27.2732 366.4 27.0632C362.25 26.8332 357.01 25.6132 354.68 31.4032C354.47 31.9332 352.9 32.1332 351.97 32.1332C342.83 32.1632 333.24 34.0832 326.19 25.5832C324.98 24.1232 322.93 23.3032 321.18 22.3532C319.63 21.5132 318.64 21.0032 316.35 22.3932C313.32 24.2332 308.86 25.9432 305.27 21.8132C302.11 18.1632 298.6 14.8132 296.35 12.4732C297.48 7.28324 298.24 3.80324 299 0.323242V0.333242Z" fill="white"/>
<path d="M299 0.333252C298.24 3.81325 297.48 7.29325 296.35 12.4833C298.61 14.8233 302.11 18.1733 305.27 21.8233C308.86 25.9533 313.31 24.2333 316.35 22.4033C318.64 21.0233 319.63 21.5233 321.18 22.3633C322.93 23.3133 324.98 24.1333 326.19 25.5933C333.25 34.0933 342.83 32.1833 351.97 32.1433C352.91 32.1433 354.47 31.9433 354.68 31.4133C357 25.6233 362.25 26.8333 366.4 27.0733C370.1 27.2833 371.65 26.1033 372.56 23.0033C372.84 22.0433 373.17 21.1033 373.4 20.1333C374.31 16.3433 377.46 12.1133 370.49 10.1533C377.38 9.38325 383.36 8.81325 389.31 8.02325C393.67 7.44325 395.18 4.14325 396 0.343252H399C397.887 5.08992 394.627 9.37992 389.22 13.2133C391.17 15.6133 392.83 18.2033 395.03 20.2133C398.34 23.2333 401.91 26.0133 405.59 28.5833C409.78 31.5133 411.52 35.5233 412.02 41.7833C410.63 39.6633 409.93 38.6033 409.25 37.5633C407.93 37.8033 406.6 38.0333 404.01 38.4933C405.54 36.0733 406.46 34.6133 407.39 33.1433C403.05 29.7733 398.43 26.4033 394.08 22.7233C391.78 20.7833 390.03 18.2033 387.87 16.0833C386.51 14.7433 384.53 12.4633 383.39 12.7633C380.56 13.5133 375.77 11.6933 375.65 17.3933C375.48 25.9133 371.97 30.5933 362.45 30.1633C357.18 29.9233 355.43 33.1733 356.04 38.7233C356.37 41.6833 357.26 44.6833 357.02 47.5933C356.77 50.5433 355.44 53.4033 354.6 56.2433C354.13 49.1433 353.68 42.3533 353.21 35.3533C351.36 35.2033 350.26 35.0333 349.15 35.0333C345.44 35.0333 341.72 35.2133 338.02 35.0633C333.85 34.9033 330.53 35.4333 330.04 40.6533C329.8 43.2633 328.82 45.8133 328.17 48.3933C323.16 49.7733 317.55 49.8333 315.09 55.8133C314.7 56.7433 312.5 56.9333 310.42 57.7433C312.9 51.3133 317.08 48.4133 322.63 47.4333C325.58 46.9133 327.57 45.9033 327.27 42.4433C327.2 41.6633 327.5 40.7433 327.9 40.0533C330.79 35.0033 328.95 31.3133 324.8 28.0233C320.44 24.5533 316 23.6633 310.99 26.5633C308.26 28.1433 301.42 25.5033 298.13 21.7233C297.16 20.6033 296.37 19.3233 295.33 17.8933C293.8 18.3833 292.31 18.8533 289.34 19.8033C291.54 17.7333 292.67 16.6733 293.94 15.4733C287.63 15.0433 285.51 16.8333 284.8 22.9133C283.85 30.9833 279.12 33.8633 271.6 30.9533C268.77 29.8533 265.96 27.4433 263.29 31.3533C260.28 35.7433 259.91 41.1733 262.55 44.3133C262.85 44.6633 262.95 45.1733 263.16 45.6333C258.59 46.4633 255.44 43.3933 257.02 39.2933C259.81 32.0633 260.46 25.1533 257.46 17.6733C254.89 11.2533 253.88 10.7933 246.78 12.9533C240.02 15.0133 232.91 15.9033 225.95 17.3033L226.05 17.4133C225.09 16.6533 224.13 15.8933 222.37 14.4933C233.27 11.8433 243.43 9.37325 253.89 6.83325V2.24325C257.24 9.95325 260.58 17.6733 264.05 25.6733C265.31 25.6733 267.14 25.4733 268.91 25.7333C270.7 25.9933 272.41 26.7633 274.18 27.2133C280.19 28.7333 283.04 26.8833 284.01 20.8033C284.22 19.5033 283.82 18.0433 284.24 16.8533C284.81 15.2433 285.57 12.9133 286.81 12.4633C292.76 10.2933 296.72 6.63325 298 0.333252C298.33 0.333252 298.67 0.333252 299 0.333252Z" fill="#4D5A79" fill-opacity="0.05"/>
<path d="M37.9999 0.333252C37.5299 2.45325 35.6699 3.64325 34.6699 5.14325C32.5799 8.27325 31.6199 12.4233 31.1499 16.2733C30.6499 20.3533 29.8199 23.6033 25.8299 25.6833C24.4799 26.3933 23.3999 28.3933 23.0099 30.0033C22.0899 33.8233 21.6599 37.7533 20.9399 42.1633C22.5599 44.1733 28.5699 43.5033 26.9099 48.8833C25.8799 52.2233 23.9399 55.2833 22.5499 58.5233C20.6799 62.9033 18.9399 67.3433 17.0499 71.9733C22.3899 74.7233 27.8299 77.5233 33.5099 80.4533C34.9199 76.3533 36.8699 73.2333 41.9699 75.9933C40.7399 77.9133 39.4499 79.9332 37.7199 82.6432C51.9499 83.7032 65.5899 84.7233 79.2399 85.7333L79.1499 87.5732H35.9399C35.6299 89.1532 35.1899 91.3432 34.8899 92.8532C41.6299 96.8732 42.3499 103.643 44.9999 108.983C40.8599 110.063 37.1299 111.043 33.4099 112.013C33.2499 111.553 33.0799 111.083 32.9199 110.623C34.4199 110.143 35.9399 109.703 37.4299 109.173C40.3699 108.133 41.9099 106.453 40.2399 103.183C39.4099 101.563 39.0599 99.6533 38.0299 98.1833C37.3699 97.2333 35.9399 96.6632 34.7499 96.2832C33.1499 95.7732 31.4299 95.6033 29.7599 95.2933C29.8599 94.8433 29.9599 94.3933 30.0599 93.9433H32.3899C32.6099 90.9933 32.8199 88.2532 33.0199 85.4632C21.9099 73.9932 11.7599 81.7933 1.52994 88.1233L0.439941 86.7132C1.61994 85.2132 2.79994 83.7033 4.02994 82.1533C3.36994 82.0733 2.19994 81.9233 1.02994 81.7733C0.999941 81.4833 0.969941 81.1933 0.939941 80.9033C3.69994 80.0633 6.45994 79.2233 8.90994 78.4833C9.59994 75.4433 9.69994 70.4233 10.9899 70.0933C15.0499 69.0633 13.3399 65.7333 14.6699 63.8133C16.7299 60.8133 18.3799 57.5333 20.3399 54.4633C23.4899 49.5533 23.1599 46.7133 17.8699 44.8233C12.7599 42.9933 7.19994 42.4533 0.889941 41.1433C5.09994 40.8333 8.64994 40.1733 12.1399 40.4233C15.7699 40.6833 17.3199 39.2633 17.8399 35.9533C18.1199 34.1533 18.9899 32.3533 18.8899 30.5933C18.6699 26.7833 20.0499 24.3133 23.4999 22.6433C24.6399 22.0933 26.0999 20.4633 26.0199 19.4433C25.3899 12.2033 28.6499 6.27325 31.9999 0.333252H37.9999Z" fill="#4D5A79" fill-opacity="0.05"/>
<path d="M143 0.333252C142.83 0.623252 142.49 0.923252 142.51 1.18325C143.29 8.98325 138.69 15.2733 136.66 22.2833C135.12 27.5733 139.76 32.3033 144.96 33.5533C153 35.4733 161.81 36.3833 167.47 43.9833C168.4 45.2333 170.88 45.5733 172.71 45.8533C175.77 46.3333 178.89 46.4233 183.48 46.8033C185.19 44.3433 187.75 40.4033 190.59 36.6733C191.92 34.9233 193.89 33.6733 195.36 32.0233C197.06 30.1133 199.45 28.2033 199.95 25.9433C201.91 17.1633 203.69 8.19325 197 0.333252H201C206.18 6.19325 205.51 13.1133 204.25 20.6333C208.35 21.8233 212.23 23.2533 216.23 23.9333C217.55 24.1533 219.28 22.5233 220.69 21.5433C222.55 20.2533 224.27 18.7733 226.06 17.3733L225.96 17.2633C223.95 20.6233 221.95 23.9833 219.95 27.3233C221.55 28.3833 222.94 29.3033 224.33 30.2133C224.22 30.4033 224.11 30.5933 224 30.7833C217.28 29.4233 210.56 28.0533 205.64 27.0533C201.63 30.9133 197.99 33.1633 196.15 36.4333C191.68 44.3533 182.16 49.5433 183.07 60.4633C183.33 63.5333 182.64 66.6833 182.39 69.7933L182.47 69.7333C181.5 70.2633 180.54 70.8033 178.65 71.8433C179.1 65.8933 179.38 60.6433 179.91 55.4233C180.37 50.9033 178.43 48.2033 173.92 49.0233C169.15 49.8833 166.1 48.0933 162.88 45.0633C157.12 39.6533 150.15 37.1433 141.85 38.1233C142.71 38.8033 143.57 39.4733 144.48 40.1933C139.24 46.9933 133.98 53.8133 128.73 60.6333C128.44 60.4633 128.15 60.2933 127.86 60.1233C129.12 57.9133 130.28 55.6333 131.66 53.5033C132.74 51.8433 134.21 50.4233 135.31 48.7733C140.83 40.4733 140.72 37.1933 133.84 29.9633C131.35 27.3533 131.05 25.5433 132.8 22.3433C135.24 17.8933 136.95 13.0133 138.68 8.22325C139 7.35325 138.22 5.79325 137.51 4.90325C136.16 3.24325 134.51 1.84325 133 0.333252C136.33 0.333252 139.67 0.333252 143 0.333252Z" fill="#4D5A79" fill-opacity="0.05"/>
<path d="M298 0.333232C296.72 6.63323 292.76 10.2932 286.83 12.4432C285.58 12.8932 284.82 15.2232 284.26 16.8332C283.84 18.0232 284.24 19.4832 284.03 20.7832C283.06 26.8732 280.21 28.7132 274.2 27.1932C272.43 26.7432 270.72 25.9732 268.93 25.7132C267.16 25.4532 265.33 25.6532 264.07 25.6532C260.6 17.6532 257.25 9.94323 253.91 2.22323C253.94 1.58323 253.97 0.953232 254.01 0.313232C268.68 0.313232 283.34 0.313232 298.01 0.313232L298 0.333232Z" fill="white"/>
<path d="M254 0.333252C253.97 0.973252 253.94 1.60325 253.9 2.24325V6.80325C243.44 9.34325 233.27 11.8133 222.38 14.4633C224.14 15.8633 225.1 16.6233 226.06 17.3833C224.28 18.7833 222.55 20.2633 220.69 21.5533C219.28 22.5333 217.55 24.1633 216.23 23.9433C212.23 23.2733 208.35 21.8333 204.25 20.6433C205.51 13.1133 206.18 6.19325 201 0.333252C218.67 0.333252 236.33 0.333252 254 0.333252Z" fill="white"/>
<path d="M0 141.333C0.91 139.493 1.84 137.663 2.69 135.793C2.78 135.603 2.29 135.193 2.31 134.903C3.11 126.923 3.09 118.983 0.12 111.163C0.62 111.043 1.12 110.933 1.61 110.813C2.58 111.633 3.61 112.413 4.53 113.283C9.92 118.423 14.96 118.523 21.13 114.393C23.52 112.793 26.77 112.483 29.63 111.593C29.85 111.973 30.06 112.343 30.28 112.723C27.6 114.283 25.03 116.083 22.22 117.343C19.97 118.343 17.37 118.523 15.05 119.403C13.66 119.933 12.51 121.103 11.25 121.993C10.69 121.653 10.12 121.323 9.56 120.983C9.56 125.233 9.08 129.553 9.67 133.723C10.61 140.293 9.49 142.163 2.92 142.963C1.91 143.083 0.97 143.863 0 144.333C0 143.333 0 142.333 0 141.333Z" fill="#4D5A79" fill-opacity="0.05"/>
<path d="M360 0.333252C363.16 5.30325 366.32 10.2733 369.43 15.1533C362.39 12.8733 358.75 7.43325 357 0.333252C358 0.333252 359 0.333252 360 0.333252Z" fill="#4D5A79" fill-opacity="0.05"/>
<path d="M182.38 69.8132C187.35 69.7832 189.05 71.4032 189.23 75.7632C189.6 85.0432 188.53 93.9532 184.04 102.323C183.37 103.563 184.21 105.733 184.61 107.403C185.22 109.963 186.05 112.473 186.63 114.463C202.38 115.903 217.77 117.303 233.67 118.763C235.4 113.933 237.23 109.523 238.56 104.963C240.55 98.1532 246.44 94.6732 254.53 96.5732C251.91 97.2532 249.89 97.5332 248.06 98.2932C243.5 100.183 240.23 102.953 240.26 108.633C240.27 110.923 239.03 113.423 237.77 115.463C233.3 122.693 230.31 130.133 230.68 138.953C230.81 142.183 228.43 145.483 227.3 148.793C226.08 152.363 224.98 155.973 223.76 159.793C227.06 160.133 229.73 160.863 232.26 160.543C235.66 160.113 238.93 158.753 242.31 158.013C245.1 157.403 248.04 156.463 250.78 156.803C256.66 157.513 262.32 159.423 268.18 156.103C270.49 154.793 273.76 155.283 276.4 154.403C278.28 153.783 281.05 152.483 281.34 151.063C282.46 145.603 284.98 140.183 281.65 134.283C280.34 131.963 281.44 128.303 281.44 125.253C282.09 125.223 282.74 125.183 283.39 125.153C283.89 131.583 285.46 138.153 284.59 144.383C283.63 151.243 284.4 155.953 291.31 158.483C291.89 158.693 292.32 159.303 292.89 159.783C292.46 159.923 292.03 160.193 291.89 160.083C282.94 153.223 274.42 158.273 265.53 160.493C260.85 161.663 255.34 161.403 250.65 160.133C245.73 158.803 244.97 158.373 242.77 163.463C242.34 164.453 241.38 165.223 240.26 166.583C239.89 165.243 239.67 164.463 239.63 164.323C235.64 165.393 231.66 166.463 226.55 167.833C227.51 165.713 227.97 164.683 228.5 163.513C227.05 163.373 225.57 163.223 224.62 163.133C219.39 167.903 214.46 172.393 209.54 176.873C209.23 176.613 208.92 176.353 208.6 176.093C210.34 174.083 211.89 171.863 213.85 170.103C218.46 165.953 221.45 161.203 222.46 154.853C223.02 151.353 222.68 146.793 227.45 144.723C228.06 144.463 226.83 139.963 226.38 136.923C227.49 132.733 228.82 127.663 230.35 121.893C224.44 121.893 219.37 122.053 214.31 121.863C204.9 121.503 195.47 121.143 186.1 120.233C184.82 120.113 183.49 116.963 182.81 114.993C180.93 109.583 176.29 107.303 171.58 106.293C169.23 105.793 164.77 107.843 163.77 109.943C161.85 113.973 161.32 118.823 160.99 123.393C160.77 126.413 161.92 129.543 162.53 133.043C164.51 132.673 166.51 132.293 168.51 131.923C168.64 132.283 168.77 132.643 168.89 133.003C167.25 133.843 165.61 134.673 164.06 135.473C164.06 137.823 164.26 140.163 163.97 142.433C163.84 143.493 162.97 144.753 162.07 145.363C157.67 148.333 157.38 151.343 161.35 155.303C165.87 159.823 170.44 164.293 174.9 168.863C175.92 169.913 176.62 171.273 177.49 172.533C182.96 170.813 187.66 174.423 186.91 180.303C186.23 185.673 185.38 190.913 189.16 195.553C190.99 197.803 192.47 201.003 196.2 197.983C196.61 197.653 197.73 197.903 198.39 198.193C202.8 200.113 207.21 202.053 211.57 204.103C218.33 207.283 221.99 206.663 227.42 201.203C228.71 199.903 229.92 198.523 231.2 197.203C231.78 196.603 232.65 195.483 233.01 195.613C239.57 198.013 244.86 191.813 251.37 193.103C256.15 194.043 258.27 196.933 259.76 201.903C252.61 195.683 246.31 195.693 241.23 202.783C239.02 201.853 236.97 200.583 234.75 200.163C231.5 199.543 230.95 202.773 229.16 204.433C225.46 207.853 220.64 210.063 216.11 212.863C207.95 205.973 198.11 203.023 186.91 201.933C186.27 204.333 185.61 206.663 185.03 209.023C184.16 212.573 183.71 216.263 182.42 219.643C180.35 225.063 178.85 230.063 182.63 235.543C183.98 237.493 183.54 240.663 184 243.263C185.53 251.763 187.09 260.263 188.65 268.753L190.4 269.233C191.97 267.533 193.54 265.833 195.2 264.043C200.47 263.153 206.34 262.233 212.18 261.123C213.76 260.823 215.68 260.343 216.69 259.253C220.93 254.643 226.53 253.483 232.21 251.963C235.93 250.963 239.47 248.853 242.72 246.673C246.03 244.443 248.61 242.763 253.08 244.813C256.14 246.213 260.35 245.083 264.13 245.083C261.6 248.513 258.06 248.463 254.68 246.733C249.9 244.303 246.83 245.933 243.3 249.403C240.25 252.393 236.08 254.243 231.51 257.183C231.51 262.083 231.44 268.373 231.59 274.653C231.61 275.583 232.51 276.733 233.33 277.363C238.98 281.743 244.71 286.013 248.49 288.863C255.13 288.303 259.77 288.173 264.31 287.413C266.88 286.983 269.96 286.133 271.59 284.343C275.38 280.193 278.55 275.443 281.7 270.763C282.55 269.503 282.36 267.573 282.84 266.003C283.65 263.343 284.61 260.733 285.51 258.103C285.96 258.253 286.41 258.403 286.86 258.553C286.27 263.363 285.7 268.173 285.08 272.973C285.02 273.423 284.76 273.903 284.46 274.253C281.61 277.603 278.47 280.733 275.92 284.303C272.95 288.473 269.88 290.943 264.13 290.913C256.32 290.873 249.77 294.593 245.32 301.443C243.91 303.603 242.05 305.463 239.8 307.043C244.38 303.803 240.03 295.283 249.55 293.783C244.77 289.993 241.36 286.193 237.11 284.173C230.63 281.083 228.5 276.923 230.14 270.063C230.77 267.413 230.42 264.393 229.94 261.643C229.13 256.983 226.41 255.513 223.01 258.503C215.24 265.313 205.62 267.163 196.27 270.023C192.34 271.223 188.45 272.923 184.97 275.083C183.08 276.253 182.08 278.873 180.59 280.963C179.097 280.55 178.653 278.137 179.26 273.723C181.1 273.153 182.95 272.573 185.2 271.863C183.78 267.163 182.16 262.793 181.2 258.283C180.32 254.153 179.51 249.813 179.84 245.653C180.62 235.803 175.01 229.723 165.38 230.073C161.92 230.203 158.37 228.883 154.91 228.033C151.07 227.083 147.18 226.163 143.5 224.743C141.24 223.873 139.34 222.083 136.73 220.343C148.07 222.173 157.58 227.903 168.63 226.303C170.07 226.093 171.67 226.273 173.09 226.663C175.93 227.443 176.96 226.143 177.55 223.603C179.21 216.463 181.03 209.353 182.78 202.233C182.86 201.913 182.99 201.503 182.86 201.253C179.41 194.593 181.41 187.823 182.03 180.993C182.18 179.293 179.79 176.963 178.05 175.573C174.76 172.953 170.93 171.023 167.64 168.393C164.93 166.223 162.9 163.193 160.18 161.053C156.81 158.403 153.65 155.893 154.81 150.223C148.54 153.023 143.09 155.553 137.55 157.873C136.39 158.363 134.93 158.193 133.61 158.203C125.61 158.293 118.73 160.463 113.52 167.213C112.08 169.083 108.72 169.873 106.09 170.323C101.86 171.063 99.85 172.683 101.09 177.253C101.74 179.643 102.06 182.193 102.05 184.663C102.03 189.073 101.64 193.483 101.31 199.423C106.86 208.793 117.94 212.773 130.8 215.423C124.66 217.653 118.52 211.373 114.2 218.563V213.193C105.57 212.523 101.59 205.133 97.01 199.493C91.03 206.593 85.47 213.193 79.91 219.793C79.58 219.573 79.26 219.353 78.93 219.133C79.45 218.023 79.78 216.773 80.5 215.823C85.43 209.333 90.15 202.643 95.54 196.553C98.55 193.153 99.28 189.743 98.75 185.593C97.12 172.903 95.44 170.863 83.07 167.513C79.89 166.653 76.58 166.263 74.36 165.853C71.16 169.023 68.87 171.813 66.04 173.833C65 174.573 62.36 173.943 60.97 173.093C57.94 171.253 56.22 172.103 54.44 174.793C52.55 177.653 50.26 180.253 48.14 182.963C47.77 182.693 47.4 182.423 47.02 182.163C48.46 180.253 49.89 178.323 51.35 176.423C52.96 174.313 54.6 172.223 56.34 169.993C50.28 160.013 41.38 153.723 29.77 151.063C45.48 147.643 52.47 159.883 61.68 168.473C64.18 166.853 66.56 165.353 68.9 163.803C72.38 161.493 75.76 161.843 79.97 162.143C88.6 162.743 96.84 170.203 105.91 164.103C109.73 161.533 113.42 158.583 117.59 156.773C121.88 154.903 126.71 154.293 131.25 152.953C133.38 152.323 135.39 151.293 137.46 150.443C138.15 150.163 138.9 149.593 139.54 149.683C147.74 150.813 151.79 144.073 157.29 140.203C158.17 139.583 158.73 137.083 158.2 136.163C155.91 132.143 156.05 128.013 156.65 123.713C157.69 116.283 153.38 112.173 147.76 108.283C142.81 104.863 138.61 100.343 134.64 95.6432C141.36 99.9932 148.19 104.203 154.76 108.763C157.9 110.943 159.46 110.713 161.03 107.083C163.92 100.413 164.93 99.9532 171.57 100.403C171.43 101.273 171.29 102.123 171.15 102.993C179.46 103.983 179.53 104.003 182.48 96.2832C185.86 87.4332 187.2 78.5332 182.44 69.6832C182.42 69.6932 182.34 69.7532 182.34 69.7532L182.38 69.8132Z" fill="#4D5A79" fill-opacity="0.05"/>
<path d="M70.11 57.9933C79.34 47.5633 79.38 35.4233 70.99 28.4933C68.82 26.7033 66.56 24.8833 64.85 22.6933C62.51 19.6933 60.64 16.3233 58.37 12.8033C56.89 12.9233 55.16 13.0633 53.35 13.2133C53.82 11.0133 53.97 10.9533 60.97 9.59326C60.67 15.3433 63.57 19.5733 67.58 23.2033C69.3 24.7733 71.1 26.2633 72.97 27.6533C78.43 31.6833 80.89 36.9733 79.76 43.7233C78.62 50.5433 80.55 56.3833 84.4 62.0533C86.65 65.3733 87.67 69.5233 89.37 73.2433C90.11 74.8733 90.8 77.0633 92.15 77.7833C98.72 81.2433 105.45 84.4033 112.23 87.4433C118.24 90.1333 123.59 87.9533 128.64 84.5933C129.18 84.2333 129.59 83.4833 130.16 83.3533C137.79 81.7033 142.5 75.9733 147.9 71.0133C146.21 74.4333 144.53 77.8533 142.88 81.2033C145.11 83.7633 147.21 86.1833 150.15 89.5733C148.34 89.1933 147.76 89.2433 147.56 88.9933C141.91 81.8533 139.67 81.8833 130.29 87.8533C126.07 90.5333 121.37 92.4733 116.42 94.9833C113.92 100.493 110.99 106.973 108.05 113.453C107.83 113.523 107.62 113.593 107.4 113.673C107.66 111.343 107.73 108.973 108.26 106.703C108.54 105.483 109.63 104.453 110.32 103.313C115.49 94.8033 115.41 94.9733 106.53 91.1533C100.78 88.6833 95.31 85.5833 89.06 82.4433C89.16 84.4933 89.23 85.7933 89.3 87.0933C86.16 76.1733 84.15 64.9433 75.76 55.9033C74.76 56.2733 72.9 56.9633 70.13 57.9933H70.11Z" fill="#4D5A79" fill-opacity="0.05"/>
<path d="M364.81 95.1032C364.89 94.2632 364.57 92.8032 365.15 92.0732C369.45 86.6732 365.26 86.1332 361.45 85.5032C357.14 84.7932 352.79 84.2932 348.48 83.6932C347.05 80.9732 345.21 77.4832 343.76 74.7332C345.75 68.4832 347.61 62.6532 349.47 56.8332C349.83 56.7632 350.19 56.7032 350.55 56.6332C350.65 58.0932 351.13 59.6532 350.78 60.9932C350.21 63.2232 349 65.2832 348.24 67.4732C345.23 76.1232 348.52 81.3232 357.56 82.5632C360.68 82.9932 363.86 83.4932 366.82 84.5132C375.01 87.3432 384.99 82.3232 387.15 74.0532C387.96 70.9432 392.79 69.0532 397.14 70.2032C397.93 70.4132 398.64 71.1532 399.4 71.1832C401.77 71.2832 404.15 71.1532 406.53 71.1132C406.24 69.0832 405.95 67.0532 405.67 65.0232C405.61 64.5832 405.59 64.1432 406.12 63.2332C410.07 76.1432 417.24 85.7532 432.1 88.6032C421.53 90.8732 419.48 90.4832 413.32 82.7232C407.79 75.7532 400.64 74.0632 392.39 74.3332C389.84 74.4132 388.49 75.3032 388.8 77.8032C389.41 82.6532 386.78 85.0232 382.69 86.5232C379.28 87.7732 375.82 88.9432 372.54 90.4832C369.94 91.7032 367.58 93.4132 364.8 95.1032H364.81Z" fill="#4D5A79" fill-opacity="0.05"/>
<path d="M242.77 70.6033C237.78 73.9733 234.26 76.3433 230.35 78.9933C230.35 77.7133 230.41 76.6633 230.34 75.6133C230.12 72.2033 228.26 70.6133 225.04 71.8733C222.03 73.0533 219.29 74.9033 216.38 76.3633C214.61 77.2533 212.75 77.9433 210.39 77.7033C211.61 76.3733 213.03 75.1833 214.02 73.6933C217.79 68.0133 219.8 67.1933 226.31 68.4133C229.15 68.9433 232.11 68.8033 234.99 69.1633C237.39 69.4633 239.75 70.0333 242.77 70.6033Z" fill="#4D5A79" fill-opacity="0.05"/>
<path d="M264.59 47.4532C269.12 45.3232 272.65 43.6732 277.25 41.5232C276.06 42.9632 275.57 43.9432 274.77 44.4632C271.31 46.7032 268.94 49.5932 269.91 53.9032C271.31 60.1532 273.06 66.3232 274.6 72.3032C278.34 71.1032 281.25 70.1632 284.16 69.2332C284.48 69.8832 284.8 70.5432 285.11 71.1932C279.08 70.6632 276.04 74.2332 273.12 78.8632C275.73 73.6732 271.96 70.6732 270.47 66.8532C267.87 60.1932 266.26 53.1532 264.6 47.4732L264.59 47.4532Z" fill="#4D5A79" fill-opacity="0.05"/>
<path d="M296.97 63.5032C299.38 63.3232 301.78 63.1532 304.44 62.9632C305.23 60.5132 306.09 57.8532 306.95 55.1832C307.27 55.2532 307.59 55.3232 307.91 55.3932V77.5632C307.04 74.5132 305.82 70.2532 304.48 65.5532C302.27 65.1932 299.59 64.7532 296.91 64.3132C296.93 64.0432 296.95 63.7732 296.97 63.5132V63.5032Z" fill="#4D5A79" fill-opacity="0.05"/>
<path d="M255.83 61.0732C254.1 69.2532 248.7 76.3232 240.01 80.2432C245.46 73.6432 251.11 66.7932 255.83 61.0732Z" fill="#4D5A79" fill-opacity="0.05"/>
<path d="M14.7399 171.203C14.1199 169.423 13.3199 167.663 13.0699 165.823C13.0299 165.523 15.4499 164.893 16.7399 164.413L17.0699 170.723C16.2899 170.883 15.5199 171.033 14.7399 171.193V171.203Z" fill="#4D5A79" fill-opacity="0.05"/>
<path d="M380.54 43.1232C381.33 41.0332 381.83 39.7132 382.26 38.5632H389.73C389.73 38.8732 389.73 39.1732 389.73 39.4832C386.96 40.5832 384.19 41.6732 380.53 43.1232H380.54Z" fill="#4D5A79" fill-opacity="0.05"/>
<path d="M326.49 262.873C325 259.263 323.71 256.133 322.47 253.123C320.62 251.763 318.58 250.033 316.31 248.673C314.63 247.663 312.66 247.143 310.83 246.383C308.24 245.323 305.65 244.243 303.06 243.183C300.3 242.053 297.53 240.963 294.8 239.763C293.82 239.333 292.44 238.843 292.12 238.023C290.38 233.673 288.37 229.313 287.53 224.763C286.75 220.533 285.84 217.343 281.1 216.183C279.84 215.873 279.06 213.623 278.06 212.263C279.2 211.433 280.34 210.623 281.47 209.773C286.29 206.143 291.14 202.553 295.91 198.853C298.69 196.693 301.32 194.333 304.06 192.113C305.67 190.813 307.22 189.323 309.05 188.463C310.41 187.833 312.48 187.463 313.71 188.063C317.74 190.013 320.45 188.923 323.36 185.793C325.14 183.873 328 182.953 330.37 181.573C331.63 180.843 333.12 180.323 334.09 179.303C339.28 173.883 343.85 173.813 349.48 178.743C350.96 180.033 353.31 180.493 355.35 180.963C362.28 182.543 369.44 183.283 376.32 184.533C385.68 186.233 387.75 195.423 382.78 203.603C381.65 205.463 380.72 208.203 381.21 210.173C382.88 217.003 382.97 224.223 387.2 230.473C390.69 235.643 389.46 240.003 383.95 243.023C379.87 245.263 379.15 247.543 380.69 251.843C382.54 257.013 379.17 262.673 373.99 264.903C372.67 265.473 371.61 266.663 370.49 267.633C368.12 269.683 365.98 271.083 362.27 271.143C358.2 271.213 353.97 273.493 350.2 275.543C347.4 277.063 346.74 275.563 345.63 273.833C344.31 271.763 343.03 269.663 341.56 267.703C340.09 265.733 338.47 263.883 336.83 262.053C335.66 260.743 334.32 258.513 333.14 258.563C331.53 258.633 329.99 260.483 328.43 261.573C328.05 261.833 327.66 262.093 326.49 262.883V262.873Z" fill="white"/>
</g>
<defs>
<clipPath id="clip0_3_1338">
<rect width="557" height="430" fill="white" transform="translate(0 0.333252)"/>
</clipPath>
</defs>
</svg>
